HIERARCHY
ROOT Hips
{
    OFFSET 0.000000 0.000000 0.000000
    CHANNELS 6 Xposition Yposition Zposition Zrotation Yrotation Xrotation
    JOINT LeftUpLeg
    {
        OFFSET 1.623290 -1.808000 0.673180
        CHANNELS 3 Zrotation Yrotation Xrotation
        JOINT LeftLeg
        {
            OFFSET 2.571390 -7.064839 0.000000
            CHANNELS 3 Zrotation Yrotation Xrotation
            JOINT LeftFoot
            {
                OFFSET 2.520170 -6.924130 0.000000
                CHANNELS 3 Zrotation Yrotation Xrotation
                JOINT LeftToeBase
                {
                    OFFSET 0.232950 -0.640010 2.102140
                    CHANNELS 3 Zrotation Yrotation Xrotation
                    End Site
                    {
                        OFFSET 0.000000 0.000000 0.000000
                    }
                }
            }
        }
    }
    JOINT RightUpLeg
    {
        OFFSET -1.480610 -1.808000 0.673180
        CHANNELS 3 Zrotation Yrotation Xrotation
        JOINT RightLeg
        {
            OFFSET -2.632580 -7.232960 0.000000
            CHANNELS 3 Zrotation Yrotation Xrotation
            JOINT RightFoot
            {
                OFFSET -2.547790 -7.000000 0.000000
                CHANNELS 3 Zrotation Yrotation Xrotation
                JOINT RightToeBase
                {
                    OFFSET -0.230670 -0.633760 2.121610
                    CHANNELS 3 Zrotation Yrotation Xrotation
                    End Site
                    {
                        OFFSET 0.000000 0.000000 0.000000
                    }
                }
            }
        }
    }
    JOINT Spine
    {
        OFFSET -0.021080 2.075730 -0.169810
        CHANNELS 3 Zrotation Yrotation Xrotation
        JOINT Spine1
        {
            OFFSET 0.050700 2.084390 -0.031410
            CHANNELS 3 Zrotation Yrotation Xrotation
            JOINT Neck1
            {
                OFFSET -0.107310 1.604080 0.313700
                CHANNELS 3 Zrotation Yrotation Xrotation
                JOINT Head
                {
                    OFFSET 0.084110 1.656790 -0.308220
                    CHANNELS 3 Zrotation Yrotation Xrotation
                    End Site
                    {
                        OFFSET 0.000000 0.000000 0.000000
                    }
                }
            }
            JOINT LeftShoulder
            {
                OFFSET 0.000000 0.000000 0.000000
                CHANNELS 3 Zrotation Yrotation Xrotation
                JOINT LeftArm
                {
                    OFFSET 3.523150 0.732190 -0.546940
                    CHANNELS 3 Zrotation Yrotation Xrotation
                    JOINT LeftForeArm
                    {
                        OFFSET 5.324620 -0.000000 -0.000000
                        CHANNELS 3 Zrotation Yrotation Xrotation
                        JOINT LeftHand
                        {
                            OFFSET 3.484020 -0.000000 -0.000000
                            CHANNELS 3 Zrotation Yrotation Xrotation
                            End Site
                            {
                                OFFSET 0.000000 0.000000 0.000000
                            }
                        }
                    }
                }
            }
            JOINT RightShoulder
            {
                OFFSET 0.000000 0.000000 0.000000
                CHANNELS 3 Zrotation Yrotation Xrotation
                JOINT RightArm
                {
                    OFFSET -3.417660 0.935920 -0.100190
                    CHANNELS 3 Zrotation Yrotation Xrotation
                    JOINT RightForeArm
                    {
                        OFFSET -5.335890 -0.000000 -0.000000
                        CHANNELS 3 Zrotation Yrotation Xrotation
                        JOINT RightHand
                        {
                            OFFSET -3.641340 -0.000000 -0.000000
                            CHANNELS 3 Zrotation Yrotation Xrotation
                            End Site
                            {
                                OFFSET 0.000000 0.000000 0.000000
                            }
                        }
                    }
                }
            }
        }
    }
}
MOTION
Frames: 12
Frame Time: 0.016667
-0.697700 16.798176 -2.237900 -0.849432 -6.705568 24.717104 -2.817963 -15.867486 -39.135048 -5.512035 16.011900 37.073277 3.268867 9.462035 -18.045309 -0.075745 -2.137427 0.623489 2.221965 17.195091 -42.770622 1.774778 -15.469523 39.183414 -4.215186 -16.801056 -17.983589 -0.279055 -0.039633 -2.201803 2.018923 -0.486524 6.488774 -1.155684 -0.214201 -2.116030 5.432962 -3.579277 14.542064 -4.639427 -0.354867 -5.738845 -0.263121 -8.353766 1.054936 -79.076836 -17.509233 48.754528 13.795035 -20.527092 -12.204820 4.665713 -2.285470 -7.394077 1.643236 8.441370 2.163174 71.574654 15.677265 27.573288 -12.060279 55.203976 -2.291637 -4.078961 3.040513 1.162597 
-0.697700 16.798176 -2.237900 -0.848882 -6.705028 24.717651 -2.817866 -15.867611 -39.135433 -5.514750 16.012194 37.071621 3.269604 9.466978 -18.046608 -0.075772 -2.136924 0.625061 2.225573 17.196524 -42.770256 1.763113 -15.465893 39.185883 -4.213572 -16.789198 -17.981949 -0.279055 -0.039635 -2.202825 2.019618 -0.486056 6.489925 -1.156266 -0.214716 -2.115793 5.433343 -3.579520 14.543835 -4.639279 -0.357329 -5.740828 -0.263727 -8.352863 1.056117 -79.086075 -17.507801 48.758503 13.778262 -20.511616 -12.191420 4.667385 -2.284197 -7.397588 1.644328 8.440866 2.163729 71.572945 15.678788 27.575497 -12.044774 55.191902 -2.269470 -4.084319 3.040254 1.171919 
-0.696000 16.799675 -2.231100 -0.849089 -6.756327 24.719358 -2.834787 -15.862370 -39.107635 -5.511869 16.015703 37.081726 3.269704 9.471210 -18.019762 -0.075780 -2.138891 0.624906 2.248082 17.194662 -42.743252 1.739167 -15.446443 39.162495 -4.214773 -16.794344 -17.972536 -0.279054 -0.039641 -2.205001 2.020103 -0.486052 6.488187 -1.157130 -0.213708 -2.114923 5.432780 -3.577903 14.545383 -4.638619 -0.356580 -5.742665 -0.266488 -8.352659 1.058119 -79.105110 -17.497368 48.767799 13.767041 -20.507208 -12.187963 4.662355 -2.284341 -7.400146 1.646511 8.442215 2.165117 71.566101 15.685061 27.572781 -12.021476 55.164452 -2.237712 -4.084506 3.038744 1.178078 
-0.695400 16.799376 -2.225800 -0.849548 -6.760554 24.721418 -2.845213 -15.859712 -39.091827 -5.505504 16.017633 37.091331 3.267172 9.451710 -18.034489 -0.077323 -2.141397 0.626034 2.265110 17.195400 -42.727760 1.708420 -15.439477 39.175152 -4.212861 -16.785912 -17.986811 -0.279053 -0.039644 -2.206243 2.020741 -0.485815 6.487692 -1.158048 -0.214227 -2.114269 5.432714 -3.575035 14.545597 -4.637208 -0.357353 -5.743983 -0.268114 -8.350689 1.059367 -79.125854 -17.485594 48.773212 13.751945 -20.498919 -12.168521 4.655479 -2.285239 -7.400096 1.649987 8.443971 2.166942 71.558235 15.691996 27.569584 -11.986498 55.124378 -2.198352 -4.083149 3.038243 1.178208 
-0.691600 16.798176 -2.216400 -0.852274 -6.693563 24.729183 -2.848532 -15.857478 -39.083591 -5.544374 16.032766 37.091534 3.266896 9.442572 -18.088568 -0.078893 -2.144170 0.630282 2.307973 17.195858 -42.685604 1.599291 -15.411441 39.212303 -4.204814 -16.739037 -18.014336 -0.279793 -0.019381 -2.207268 2.021247 -0.484516 6.487503 -1.159172 -0.212710 -2.113357 5.432748 -3.570523 14.545982 -4.635013 -0.355682 -5.744633 -0.269275 -8.349478 1.061339 -79.148254 -17.468536 48.784698 13.733798 -20.502008 -12.156521 4.642036 -2.286336 -7.399824 1.655423 8.446357 2.169354 71.552292 15.705151 27.566185 -11.941598 55.072868 -2.146893 -4.083164 3.037157 1.178017 
-0.686400 16.795477 -2.195100 -0.856367 -6.713152 24.736670 -2.861708 -15.848518 -39.050713 -5.577762 16.079823 37.166004 3.265208 9.421262 -18.159180 -0.081865 -2.145427 0.636072 2.355896 17.193790 -42.632648 1.483035 -15.392963 39.279194 -4.191645 -16.668001 -18.077183 -0.279793 -0.019386 -2.209527 2.022446 -0.482737 6.488390 -1.159865 -0.211688 -2.112534 5.432625 -3.562553 14.545181 -4.632903 -0.353956 -5.744347 -0.269837 -8.345048 1.062593 -79.172821 -17.445503 48.781342 13.723165 -20.506815 -12.143202 4.627299 -2.288347 -7.397788 1.661555 8.449421 2.173269 71.543159 15.709420 27.561529 -11.887990 55.015739 -2.096139 -4.080213 3.036022 1.172865 
-0.685200 16.791176 -2.179700 -0.859947 -6.750669 24.746969 -2.867059 -15.843051 -39.033154 -5.576795 16.115911 37.245525 3.261648 9.383010 -18.255688 -0.083310 -2.146832 0.638870 2.368687 17.198984 -42.631683 1.429576 -15.409723 39.370358 -4.179831 -16.610756 -18.154257 -0.280411 -0.005411 -2.211156 2.022956 -0.480598 6.486811 -1.160484 -0.210140 -2.111484 5.433220 -3.554126 14.544926 -4.628792 -0.351283 -5.743998 -0.266777 -8.342418 1.063399 -79.184235 -17.417038 48.774387 13.712891 -20.529055 -12.143140 4.607147 -2.289859 -7.397850 1.669807 8.452583 2.177862 71.541405 15.713030 27.562145 -11.814077 54.937389 -2.023873 -4.076958 3.034128 1.164879 
-0.685500 16.792576 -2.171000 -0.863784 -6.659802 24.752611 -2.872028 -15.835661 -39.011501 -5.591767 16.108408 37.216480 3.259526 9.368820 -18.250376 -0.087390 -2.148947 0.642318 2.409129 17.184187 -42.557198 1.391453 -15.382986 39.343044 -4.173968 -16.577911 -18.180038 -0.279713 -0.005404 -2.213766 2.022723 -0.477079 6.486767 -1.160785 -0.207530 -2.111000 5.432865 -3.543028 14.543918 -4.624928 -0.352567 -5.740013 -0.263020 -8.335201 1.063198 -79.201691 -17.382690 48.746593 13.703621 -20.561699 -12.124741 4.584574 -2.293478 -7.388780 1.676827 8.456872 2.184478 71.536972 15.702625 27.565336 -11.761594 54.890900 -1.974308 -4.073765 3.032403 1.152485 
-0.686800 16.794277 -2.163900 -0.867225 -6.538681 24.760025 -2.871319 -15.828168 -38.994869 -5.615711 16.095270 37.167595 3.259121 9.366723 -18.245028 -0.089905 -2.150391 0.639764 2.442990 17.166502 -42.482800 1.378561 -15.362327 39.306019 -4.173013 -16.581160 -18.209742 -0.279012 -0.005396 -2.215754 2.021530 -0.473925 6.481449 -1.159609 -0.207499 -2.110168 5.433641 -3.531325 14.541416 -4.620101 -0.348009 -5.735795 -0.255300 -8.329574 1.061959 -79.212097 -17.321150 48.704388 13.707194 -20.629566 -12.136276 4.558648 -2.295835 -7.388225 1.683445 8.459340 2.190875 71.533249 15.692085 27.568602 -11.689965 54.816471 -1.909878 -4.067861 3.030402 1.135006 
-0.683200 16.791077 -2.161400 -0.871468 -6.476336 24.765959 -2.853115 -15.825010 -39.004429 -5.670548 16.112843 37.159534 3.256881 9.337426 -18.340387 -0.093632 -2.153961 0.641064 2.434966 17.163816 -42.484688 1.338573 -15.368491 39.359127 -4.162006 -16.514238 -18.243679 -0.277959 -0.005375 -2.215621 2.018567 -0.469597 6.479296 -1.158189 -0.206942 -2.109713 5.434016 -3.518306 14.537923 -4.615755 -0.346574 -5.726633 -0.245368 -8.318011 1.059693 -79.218102 -17.261003 48.640198 13.709715 -20.712967 -12.112461 4.527677 -2.302220 -7.366253 1.688172 8.461736 2.198206 71.525154 15.662229 27.573786 -11.654297 54.794571 -1.870213 -4.064711 3.028962 1.116779 
-0.681400 16.789976 -2.147200 -0.877555 -6.328051 24.770142 -2.845367 -15.815981 -38.990746 -5.728112 16.132954 37.154690 3.256688 9.328585 -18.392567 -0.098195 -2.156528 0.634844 2.471836 17.141703 -42.397221 1.301258 -15.359577 39.373631 -4.160061 -16.525604 -18.318989 -0.275840 -0.005331 -2.214340 2.015017 -0.468173 6.472783 -1.154648 -0.206872 -2.109256 5.436122 -3.503221 14.533094 -4.609512 -0.344303 -5.720570 -0.224950 -8.301929 1.054288 -79.229630 -17.159750 48.560036 13.715531 -20.822077 -12.113763 4.494597 -2.305822 -7.356742 1.691031 8.460496 2.205791 71.505661 15.632751 27.566525 -11.625091 54.754570 -1.843258 -4.062225 3.028638 1.083655 
-0.681400 16.789177 -2.137300 -0.882715 -6.330485 24.772356 -2.839728 -15.802001 -38.963696 -5.746599 16.147459 37.170616 3.251649 9.289437 -18.415628 -0.103700 -2.161573 0.633715 2.457997 17.124481 -42.371635 1.374738 -15.387403 39.369637 -4.166924 -16.592999 -18.372597 -0.274774 -0.005292 -2.206504 2.008341 -0.466337 6.468868 -1.151736 -0.208909 -2.108591 5.438200 -3.485343 14.527707 -4.604949 -0.342775 -5.709825 -0.192983 -8.275401 1.045537 -79.219086 -17.076607 48.453552 13.743332 -20.958828 -12.111843 4.455421 -2.312737 -7.330766 1.690494 8.457768 2.209723 71.473892 15.586452 27.552391 -11.621376 54.763977 -1.826246 -4.054630 3.028387 1.054023 
